 http://desibbrg.org/images/02024645020904080368.jpg 
http://desibbrg.org/images/48679432020523129992.jpg 
http://desibbrg.org/images/86426675277334401599.jpg 
http://desibbrg.org/images/00715077536926298429.jpg 
http://desibbrg.org/images/61105811206004388610.jpg

Media Info - 
General
Format : MPEG-PS
File size : 703 MiB
Duration : 1h 33mn
Overall bit rate mode : Variable
Overall bit rate : 1 047 Kbps

Video
ID : 224 (0xE0)
Format : MPEG Video
Format version : Version 2
Format profile : Main@Main
Format settings, BVOP : Yes
Format settings, Matrix : Default
Format settings, GOP : M=3, N=13
Duration : 1h 33mn
Bit rate mode : Variable
Bit rate : 898 Kbps
Maximum bit rate : 9 672 Kbps
Width : 720 pixels
Height : 576 pixels
Display aspect ratio : 4:3
Frame rate : 25.000 fps
Standard : PAL
Color space : YUV
Chroma subsampling : 4:2:0
Bit depth : 8 bits
Scan type : Progressive
Compression mode : Lossy
Bits/(Pixel*Frame) : 0.087
Stream size : 603 MiB (86%)

Audio
ID : 192 (0xC0)
Format : MPEG Audio
Format version : Version 1
Format profile : Layer 2
Duration : 1h 33mn
Bit rate mode : Constant
Bit rate : 128 Kbps
Channel(s) : 2 channels
Sampling rate : 48.0 KHz
Compression mode : Lossy
Stream size : 85.9 MiB (12%)

Ripper : Master Mind

Seeding 24x7... Extreme Seeding...


Enjoy!
